<?xml version="1.0" standalone="no"?>
<!DOCTYPE svg PUBLIC "-//W3C//DTD SVG 20010904//EN"
 "http://www.w3.org/TR/2001/REC-SVG-20010904/DTD/svg10.dtd">
<svg version="1.0" xmlns="http://www.w3.org/2000/svg"
 width="1500.000000pt" height="1500.000000pt" viewBox="0 0 1500.000000 1500.000000"
 preserveAspectRatio="xMidYMid meet">

<g transform="translate(0.000000,1500.000000) scale(0.100000,-0.100000)"
fill="#000000" stroke="none">
<path d="M5970 9005 c-207 -50 -365 -201 -415 -395 -25 -96 -17 -271 17 -362
62 -166 151 -265 448 -503 361 -288 415 -356 415 -515 0 -68 -5 -93 -22 -125
-28 -52 -78 -100 -128 -121 -60 -26 -176 -23 -242 5 -101 44 -183 163 -219
317 -10 41 -20 74 -23 74 -3 -1 -78 -22 -166 -48 -122 -36 -161 -52 -163 -65
-6 -30 46 -198 88 -282 84 -172 215 -281 400 -331 91 -25 320 -26 410 -1 199
54 356 198 413 382 28 91 30 267 3 364 -52 191 -160 316 -501 581 -285 221
-341 281 -370 398 -42 165 63 311 225 312 131 0 233 -96 291 -272 12 -38 26
-68 31 -68 10 0 321 91 327 96 9 8 -43 150 -86 235 -84 169 -223 283 -394 324
-79 18 -263 18 -339 0z"/>
<path d="M9618 9004 c-148 -35 -314 -163 -371 -286 -63 -133 -74 -321 -28
-458 57 -168 146 -270 446 -509 251 -200 351 -295 391 -372 25 -47 29 -65 29
-144 0 -101 -13 -139 -68 -195 -50 -52 -110 -74 -197 -74 -118 1 -202 48 -269
153 -32 49 -72 156 -85 224 -5 29 -11 37 -24 33 -9 -3 -82 -24 -162 -47 -80
-23 -149 -45 -154 -50 -15 -14 39 -202 86 -297 59 -121 161 -225 276 -280 216
-105 524 -93 711 28 227 147 316 426 227 706 -53 167 -147 272 -491 545 -261
208 -309 254 -347 334 -35 74 -39 176 -9 240 23 51 89 111 138 124 163 46 299
-54 368 -269 10 -30 19 -57 21 -59 8 -9 334 94 334 106 0 7 -15 55 -34 108
-84 235 -238 388 -441 440 -74 19 -268 19 -347 -1z"/>
<path d="M12102 8995 c-96 -27 -155 -70 -194 -142 -35 -64 -48 -148 -48 -315
l0 -137 -117 -3 -118 -3 -3 -142 -3 -143 121 0 120 0 0 -725 0 -725 160 0 160
0 0 725 0 725 215 0 215 0 0 -563 c0 -364 4 -584 11 -622 29 -156 127 -245
304 -276 71 -12 241 -7 300 9 l30 8 3 142 3 142 -43 -7 c-126 -23 -213 3 -256
76 l-27 46 -3 523 -3 522 151 0 151 0 -3 143 -3 142 -147 3 -148 3 0 234 0
235 -160 0 -160 0 0 -235 0 -235 -216 0 -217 0 5 108 c5 121 20 161 71 192 38
24 100 26 175 6 l52 -14 0 148 c0 131 -2 149 -17 155 -10 4 -83 9 -163 11
-108 3 -159 0 -198 -11z"/>
<path d="M8030 8825 l0 -165 163 0 162 0 0 165 0 165 -162 0 -163 0 0 -165z"/>
<path d="M8452 7828 l3 -1163 160 0 160 0 3 1163 2 1162 -165 0 -165 0 2
-1162z"/>
<path d="M2937 8785 c-214 -79 -342 -223 -369 -415 -8 -58 -16 -83 -27 -87 -9
-3 -49 -21 -89 -40 -128 -60 -234 -181 -273 -311 -18 -63 -2 -71 52 -26 103
86 270 133 408 114 41 -6 100 -17 133 -25 32 -9 63 -13 67 -10 5 3 2 29 -6 58
-24 84 -29 300 -9 389 21 96 73 204 136 284 28 35 50 68 50 74 0 13 -27 12
-73 -5z"/>
<path d="M3933 8435 c-171 -31 -316 -108 -399 -214 -42 -53 -63 -96 -52 -107
3 -2 36 11 74 30 83 42 137 55 224 56 131 0 230 -41 333 -139 185 -176 190
-467 10 -661 -52 -56 -110 -92 -227 -139 -40 -16 -23 -31 56 -48 98 -21 244
-27 328 -14 251 40 423 176 502 401 26 71 36 255 18 331 -23 100 -78 198 -160
280 -121 122 -259 191 -446 224 -102 18 -163 18 -261 0z"/>
<path d="M7260 8414 c-136 -29 -257 -115 -309 -219 -53 -107 -54 -116 -58
-622 -5 -610 2 -660 118 -787 118 -130 339 -185 556 -140 151 31 261 112 321
234 52 109 57 160 57 645 0 473 -6 546 -50 643 -34 73 -125 166 -199 202 -116
57 -294 75 -436 44z m215 -285 c58 -16 110 -73 132 -144 16 -54 18 -100 18
-455 0 -451 -4 -481 -74 -551 -81 -81 -218 -74 -285 14 -53 69 -57 118 -53
564 3 444 5 454 61 519 49 56 122 75 201 53z"/>
<path d="M10912 8415 c-135 -30 -249 -110 -305 -213 -60 -111 -62 -130 -62
-672 0 -438 2 -502 17 -557 25 -90 53 -139 114 -200 119 -120 326 -169 537
-129 190 37 310 145 359 324 20 71 22 109 26 487 4 437 -4 586 -38 683 -42
118 -154 220 -289 263 -86 27 -269 35 -359 14z m221 -287 c57 -17 103 -67 124
-136 16 -51 18 -102 18 -462 0 -459 -3 -485 -71 -552 -87 -88 -241 -69 -301
37 -40 71 -45 144 -41 560 3 383 3 391 26 442 28 61 57 90 109 108 48 18 85
18 136 3z"/>
<path d="M8035 8388 c-3 -7 -4 -398 -3 -868 l3 -855 160 0 160 0 -1 865 -1
865 -157 3 c-120 2 -158 0 -161 -10z"/>
<path d="M2728 6916 c-195 -53 -237 -312 -81 -512 73 -94 268 -211 448 -268
190 -61 392 -85 568 -67 404 42 781 245 1005 542 61 81 55 102 -16 54 -87 -59
-261 -111 -423 -125 -274 -23 -553 42 -924 217 -362 170 -448 194 -577 159z"/>
<path d="M8070 6105 l0 -205 25 0 c25 0 25 1 25 86 0 81 10 120 34 136 20 14
56 8 76 -12 17 -17 20 -33 20 -115 0 -95 0 -95 25 -95 l25 0 0 106 0 106 -35
35 c-34 34 -38 35 -90 31 l-55 -5 0 69 c0 66 -1 68 -25 68 l-25 0 0 -205z"/>
<path d="M9647 6303 c-11 -10 -8 -274 3 -315 15 -53 61 -88 116 -88 40 0 44 2
44 24 0 20 -6 24 -42 29 -64 9 -68 19 -68 199 l0 158 -23 0 c-13 0 -27 -3 -30
-7z"/>
<path d="M6470 6256 c0 -23 4 -25 53 -28 l52 -3 3 -162 2 -163 25 0 25 0 0
165 0 165 55 0 c52 0 55 1 55 25 l0 25 -135 0 -135 0 0 -24z"/>
<path d="M11194 6245 c-8 -21 2 -45 19 -45 8 0 20 7 27 15 10 12 10 18 0 30
-7 8 -19 15 -27 15 -7 0 -16 -7 -19 -15z"/>
<path d="M7081 6162 c-42 -21 -71 -73 -71 -127 0 -108 102 -174 204 -131 43
18 52 34 32 54 -15 15 -18 15 -45 -1 -39 -23 -73 -21 -105 4 -49 39 -36 48 77
51 l102 3 -3 40 c-9 102 -100 154 -191 107z m114 -57 c39 -38 32 -45 -50 -45
-84 0 -96 12 -49 49 35 28 69 26 99 -4z"/>
<path d="M7611 6162 c-68 -37 -91 -130 -49 -203 35 -63 109 -85 182 -55 43 18
52 34 33 54 -15 14 -19 14 -51 -3 -49 -27 -95 -12 -119 38 -16 31 -17 42 -7
72 20 60 79 83 127 50 18 -13 26 -13 43 -3 26 17 21 29 -21 50 -44 23 -95 23
-138 0z"/>
<path d="M8644 6171 c-12 -5 -31 -22 -43 -37 -18 -23 -21 -40 -21 -130 l0
-104 25 0 c25 0 25 1 25 89 0 74 3 92 21 115 12 15 30 26 44 26 14 0 32 -11
44 -26 18 -23 21 -41 21 -115 l0 -89 26 0 26 0 -4 110 c-3 103 -5 111 -29 136
-29 29 -97 41 -135 25z"/>
<path d="M9149 6157 c-39 -26 -69 -79 -69 -122 0 -43 30 -96 69 -122 92 -62
221 10 221 122 0 112 -129 184 -221 122z m120 -41 c27 -14 51 -53 51 -82 0
-26 -32 -72 -57 -83 -38 -17 -60 -13 -95 18 -25 22 -32 36 -32 66 0 30 7 44
32 66 36 32 60 36 101 15z"/>
<path d="M10145 6161 c-58 -35 -70 -58 -70 -126 0 -54 4 -67 25 -90 39 -42 78
-58 128 -52 144 16 180 204 51 269 -44 23 -96 23 -134 -1z m124 -57 c26 -21
31 -33 31 -69 0 -36 -5 -48 -31 -69 -34 -29 -55 -32 -94 -14 -28 13 -55 55
-55 85 1 45 50 92 97 93 12 0 35 -12 52 -26z"/>
<path d="M10692 6160 c-18 -11 -41 -34 -52 -52 -55 -91 17 -208 128 -208 38 0
42 2 42 25 0 21 -5 25 -30 25 -45 0 -77 19 -95 56 -14 29 -14 37 -2 67 19 45
65 65 107 47 49 -20 62 -58 58 -167 -3 -85 -5 -97 -27 -114 -15 -12 -39 -19
-67 -19 -40 0 -44 -2 -44 -25 0 -23 3 -25 49 -25 115 0 141 36 141 195 0 88
-4 117 -18 144 -36 66 -125 90 -190 51z"/>
<path d="M11605 6170 c-27 -11 -61 -49 -74 -83 -23 -61 -8 -118 43 -166 36
-34 118 -40 164 -12 35 23 39 33 18 50 -11 10 -21 9 -45 -3 -16 -9 -42 -16
-56 -16 -26 0 -75 39 -75 60 0 6 39 10 105 10 l105 0 0 28 c-1 44 -36 109 -69
126 -32 17 -84 20 -116 6z m99 -61 c47 -37 35 -49 -49 -49 -82 0 -89 7 -50 45
30 30 64 32 99 4z"/>
<path d="M12105 6169 c-81 -46 -49 -131 59 -158 50 -12 66 -32 46 -56 -16 -19
-53 -19 -91 0 -25 14 -32 14 -49 2 -19 -13 -19 -15 -2 -30 67 -60 191 -41 207
33 10 48 -14 75 -90 100 -71 24 -83 34 -65 55 16 20 60 19 89 -1 21 -15 24
-15 43 4 l20 20 -26 18 c-33 21 -114 29 -141 13z"/>
<path d="M11190 6035 l0 -135 25 0 25 0 0 135 0 135 -25 0 -25 0 0 -135z"/>
</g>
</svg>
